<?xml version="1.0" encoding="UTF-8"?>
<svg version="1.1" xmlns="http://www.w3.org/2000/svg" width="1024" height="1024">
<path d="M0 0 C0.93183105 0.17692383 1.86366211 0.35384766 2.82373047 0.53613281 C9.59419172 1.84610677 16.30448036 3.35073597 23 5 C23.89460938 5.22026855 24.78921875 5.44053711 25.7109375 5.66748047 C64.0584492 15.34572893 100.61876611 35.88021107 129.5390625 62.72265625 C131.73959446 64.75902154 133.97728703 66.73261853 136.25 68.6875 C142.7940826 74.40859453 148.3763118 80.54603659 153.8203125 87.328125 C155.61170287 89.52402287 157.45252959 91.6086564 159.375 93.6875 C185.69015919 123.48285425 201.23589776 162.71072581 209.8125 200.9375 C210.00755127 201.79923828 210.20260254 202.66097656 210.40356445 203.54882812 C213.68151287 218.96834373 214.32437318 234.19329919 214.26074219 249.91137695 C214.25000322 253.06155585 214.26071056 256.21116619 214.2734375 259.36132812 C214.32471902 324.2299003 185.95244009 385.91395979 140.48828125 431.51953125 C139.66714844 432.33808594 138.84601563 433.15664063 138 434 C137.13503906 434.89976562 136.27007813 435.79953125 135.37890625 436.7265625 C128.60060488 443.73988676 121.44769439 449.88459759 113.65673828 455.74462891 C112.15008828 456.88627263 110.66549008 458.05687263 109.18359375 459.23046875 C74.51362652 486.30559252 32.32362277 502.6802551 -11 509 C-11.79051758 509.11714355 -12.58103516 509.23428711 -13.39550781 509.35498047 C-35.84381007 512.51956099 -59.58144425 512.25770338 -82 509 C-83.31943604 508.8146167 -83.31943604 508.8146167 -84.66552734 508.62548828 C-131.21006585 501.88996043 -174.07376815 482.90532892 -211 454 C-211.81090088 453.36698975 -211.81090088 453.36698975 -212.63818359 452.72119141 C-218.13456703 448.40373222 -223.25536397 443.902104 -228.1171875 438.8828125 C-229.94184291 437.05815709 -231.8355717 435.40677797 -233.8125 433.75 C-277.62048186 395.84582819 -302.29318994 336.31259234 -309 280 C-309.14139404 278.90171875 -309.14139404 278.90171875 -309.28564453 277.78125 C-312.85770799 247.15991174 -308.96718715 216.58020021 -301 187 C-300.74766602 186.03739258 -300.49533203 185.07478516 -300.23535156 184.08300781 C-293.1274436 157.32543924 -280.81110493 132.00666295 -264 110 C-263.30390625 109.04996094 -262.6078125 108.09992188 -261.890625 107.12109375 C-256.64800039 99.9914961 -251.09284995 93.19612414 -245.3046875 86.50878906 C-244.06148981 85.0711091 -242.82737386 83.62559079 -241.59375 82.1796875 C-240.8821875 81.35726562 -240.170625 80.53484375 -239.4375 79.6875 C-238.81746094 78.96949219 -238.19742188 78.25148438 -237.55859375 77.51171875 C-236 76 -236 76 -234 76 C-234 75.34 -234 74.68 -234 74 C-232.6015625 72.58984375 -232.6015625 72.58984375 -230.625 70.9375 C-227.53158218 68.3175096 -224.52880568 65.63778556 -221.5625 62.875 C-163.19098856 10.45613889 -77.50984057 -15.1818858 0 0 Z M-169 66 C-169.74072754 66.33789551 -170.48145508 66.67579102 -171.24462891 67.02392578 C-198.25416337 79.51715825 -222.87526647 98.19034672 -242 121 C-242.42265137 121.49290527 -242.84530273 121.98581055 -243.28076172 122.49365234 C-277.61849441 162.71170682 -293.85709972 215.51727593 -291 268 C-290.30836898 276.04048507 -289.24821289 284.0282574 -288 292 C-287.67 292 -287.34 292 -287 292 C-287.0721875 290.80246094 -287.144375 289.60492187 -287.21875 288.37109375 C-288.74781367 262.08912364 -287.06419771 237.6660122 -281 212 C-280.81598633 211.19079102 -280.63197266 210.38158203 -280.44238281 209.54785156 C-273.63521628 180.04174154 -257.35352156 152.2038417 -237 130 C-236.37480469 129.27296875 -235.74960937 128.5459375 -235.10546875 127.796875 C-219.35099759 109.67484881 -200.36079312 94.98401538 -179 84 C-178.25766113 83.61392578 -177.51532227 83.22785156 -176.75048828 82.83007812 C-128.19485101 57.85582457 -72.27780128 52.97112992 -20.125 69.5625 C5.40021393 78.30289932 29.49766214 92.36005528 48.56152344 111.55566406 C50.07618468 113.076495 51.61735984 114.56649342 53.1640625 116.0546875 C71.63857096 133.96600078 85.497222 156.1498905 95 180 C95.66 179.67 96.32 179.34 97 179 C76.7336212 127.82739354 43.25171582 87.01963068 -7.890625 64.1328125 C-59.20573719 42.17799391 -118.29915884 42.73130227 -169 66 Z M-134 123 C-134 123.66 -134 124.32 -134 125 C-134.56589844 125.23332031 -135.13179688 125.46664062 -135.71484375 125.70703125 C-157.65471566 138.1208733 -171.26928004 173.52814736 -178 196 C-191.29256311 243.94716756 -182.73615619 295.75654303 -159 339 C-152.40758909 350.20247229 -144.66003078 360.33722882 -136 370 C-134.79150391 371.37285156 -134.79150391 371.37285156 -133.55859375 372.7734375 C-131.3983984 375.20776932 -129.21030234 377.61117324 -127 380 C-126.4534375 380.60070312 -125.906875 381.20140625 -125.34375 381.8203125 C-119.85914153 387.60065966 -113.41858936 392.31322654 -107 397 C-106.25371338 397.54785156 -105.50742676 398.09570312 -104.73852539 398.66015625 C-98.75449772 402.9610469 -92.60392195 406.61420222 -86.0625 410 C-84.57121582 410.77428345 -84.57121582 410.77428345 -83.04980469 411.56420898 C-70.5703881 417.91040034 -57.60602993 422.6893741 -44 426 C-68.91086559 424.22709159 -93.09191606 416.86789419 -115 405 C-116.00417969 404.48566406 -117.00835937 403.97132813 -118.04296875 403.44140625 C-124.84503968 399.90125932 -130.93321108 395.67811048 -137 391 C-137.84949219 390.35675781 -138.69898438 389.71351563 -139.57421875 389.05078125 C-153.73736763 377.93620254 -165.86733305 364.85298916 -176 350 C-176.66854004 349.02595215 -176.66854004 349.02595215 -177.35058594 348.03222656 C-196.67432863 319.50805385 -204.78871559 286.98394986 -207 253 C-207.33 253 -207.66 253 -208 253 C-210.71706141 292.4980224 -195.39700744 338.72492911 -169.59619141 368.62695312 C-167.26265187 371.26111347 -164.87822594 373.84070586 -162.453125 376.390625 C-160.5290266 378.43727744 -158.74934495 380.49579196 -157 382.6875 C-152.95221934 387.46388118 -147.91496182 391.16503637 -143 395 C-142.0821875 395.73347656 -141.164375 396.46695312 -140.21875 397.22265625 C-99.25603336 429.12631056 -48.29928329 439.19095521 2.45703125 432.9140625 C10.78937351 431.80244329 18.87926696 430.15091783 27 428 C27.6811084 427.82774902 28.3622168 427.65549805 29.06396484 427.47802734 C51.93616753 421.64278694 75.09202601 411.17344142 94 397 C95.11585154 396.21757836 96.23456639 395.43923098 97.35546875 394.6640625 C103.86272955 390.14564428 109.97298759 385.48771158 115.77734375 380.0703125 C117.78126734 378.20374044 119.83752915 376.44383926 121.9375 374.6875 C131.87023634 365.99136939 140.08533554 355.50713644 148 345 C148.72574219 344.05511719 149.45148438 343.11023438 150.19921875 342.13671875 C161.40182551 326.83408216 170.8970026 308.95802109 177 291 C177.24121582 290.31019043 177.48243164 289.62038086 177.73095703 288.90966797 C181.00145266 279.49072321 183.60484876 269.98649135 185.75 260.25 C185.94859619 259.3528125 186.14719238 258.455625 186.35180664 257.53125 C189.18393843 244.1019724 190.41251428 230.93494344 190.375 217.25 C190.37445618 216.49431732 190.37391235 215.73863464 190.37335205 214.96005249 C190.26663444 182.39026334 183.74879924 144.8977967 168 116 C166.67151988 119.98544036 168.08800286 122.16224706 169.6875 125.8125 C172.71502731 133.07559994 175.08953975 140.35993948 177 148 C177.20512207 148.81388184 177.41024414 149.62776367 177.62158203 150.46630859 C178.30675262 153.22362865 178.96926649 155.98553902 179.625 158.75 C179.83133057 159.59377197 180.03766113 160.43754395 180.25024414 161.30688477 C183.73941263 176.48044697 184.4120923 191.92355389 184.375 207.4375 C184.37418427 208.73636139 184.37418427 208.73636139 184.37335205 210.0614624 C184.29071339 238.88119923 178.95951803 266.31148051 168 293 C167.74138184 293.64598145 167.48276367 294.29196289 167.21630859 294.95751953 C157.38184745 319.39630586 141.89567397 340.80884794 124 360 C123.27554687 360.79019531 122.55109375 361.58039063 121.8046875 362.39453125 C110.04756617 374.72954498 95.72736517 384.54402545 81 393 C80.39994141 393.34869141 79.79988281 393.69738281 79.18164062 394.05664062 C53.60467982 408.6441548 17.17869374 419.52912789 -12.2890625 412.1796875 C-18.36124198 410.30336927 -23.39047249 408.47937001 -27.3125 403.25 C-28.83486879 398.26770213 -28.64650077 393.81690876 -26.5 389.125 C-15.32676379 369.32140204 6.10007522 356.53530181 24.72265625 344.58984375 C52.68372564 326.64907854 73.74364041 297.66846546 81.51245117 265.29907227 C83.7048827 254.96050058 84.36959848 244.86617659 84.3125 234.3125 C84.31067719 233.6110083 84.30885437 232.9095166 84.30697632 232.18676758 C84.14870205 195.93731912 70.80023842 162.09534402 47.29345703 134.5871582 C46 133 46 133 44 130 C43.34 130 42.68 130 42 130 C41.67 129.01 41.34 128.02 41 127 C38.56267745 124.4189028 35.74557286 122.2444637 33 120 C32.05640625 119.22011719 31.1128125 118.44023437 30.140625 117.63671875 C-17.217706 79.34380297 -89.27659043 80.02842906 -134 123 Z M161 104 C162.26974972 108.41522109 162.26974972 108.41522109 165 112 C164.50168276 108.31245243 163.89932357 106.39509338 161 104 Z M165 112 C166 114 166 114 166 114 Z M166 114 C167 116 167 116 167 116 Z M97 182 C98 185 98 185 98 185 Z M98 187 C98.66 188.32 99.32 189.64 100 191 C100 189.68 100 188.36 100 187 C99.34 187 98.68 187 98 187 Z M100 191 C100 192.32 100 193.64 100 195 C100.66 194.67 101.32 194.34 102 194 C101.34 193.01 100.68 192.02 100 191 Z M101 197 C101.66 198.32 102.32 199.64 103 201 C103 199.68 103 198.36 103 197 C102.34 197 101.68 197 101 197 Z M-287 294 C-287 295.65 -287 297.3 -287 299 C-286.67 299 -286.34 299 -286 299 C-286 297.35 -286 295.7 -286 294 C-286.33 294 -286.66 294 -287 294 Z M-286 300 C-286 301.65 -286 303.3 -286 305 C-285.67 305 -285.34 305 -285 305 C-285 303.35 -285 301.7 -285 300 C-285.33 300 -285.66 300 -286 300 Z M-285 306 C-284 309 -284 309 -284 309 Z " fill="#FCCE00" transform="translate(560,308)"/>
<path d="M0 0 C2.6337361 2.47395955 4.82700314 5.1184172 7 8 C7.89332031 9.10794922 7.89332031 9.10794922 8.8046875 10.23828125 C19.79363227 24.64653286 21.71101686 41.96652228 19.57421875 59.4921875 C15.94770007 75.91164016 6.55455152 89.4530084 -7.5 98.5 C-22.03626946 106.8336658 -37.40397916 109.3084341 -53.921875 106.28125 C-57.05020039 105.35323003 -60.00023177 104.28079992 -63 103 C-63.8765625 102.649375 -64.753125 102.29875 -65.65625 101.9375 C-72.55299007 98.87228219 -77.691593 94.29100238 -83 89 C-84.08667969 87.948125 -84.08667969 87.948125 -85.1953125 86.875 C-95.70030384 76.01052227 -99.85089636 61.30894085 -100.375 46.4375 C-99.8687314 30.97329562 -94.68364708 17.85681743 -85 6 C-84.35417969 5.20335937 -83.70835937 4.40671875 -83.04296875 3.5859375 C-61.51660018 -20.36883593 -24.18889739 -18.40042908 0 0 Z " fill="#FCCE00" transform="translate(648,176)"/>
<path d="M0 0 C3.02934471 2.49289825 5.82578238 5.12521606 8.5 8 C9.11746094 8.62390625 9.73492187 9.2478125 10.37109375 9.890625 C21.99063484 22.10322395 26.00662371 36.49030096 25.8515625 52.99462891 C25.36788271 69.82601367 18.43513622 84.60189817 6.1875 96.1875 C-5.41699213 106.00668565 -18.98270866 111.60674296 -34.1875 111.5 C-35.14503174 111.49427979 -36.10256348 111.48855957 -37.08911133 111.48266602 C-52.61521988 111.09591316 -66.2347719 104.65629685 -77.5 94 C-77.5 93.34 -77.5 92.68 -77.5 92 C-78.985 91.505 -78.985 91.505 -80.5 91 C-91.75510459 75.67734221 -96.6883869 58.55107476 -93.8125 39.625 C-90.55079276 23.83383803 -82.3329689 9.99215538 -69.265625 0.3515625 C-48.96177379 -12.71987113 -20.15967213 -14.75840148 0 0 Z " fill="#FCCE00" transform="translate(449.5,172)"/>
<path d="M0 0 C3.31309026 0.60194864 6.38499363 1.40479744 9.546875 2.55859375 C10.8153125 3.01395508 10.8153125 3.01395508 12.109375 3.47851562 C13.8547347 4.11237037 15.59953768 4.74776037 17.34375 5.38476562 C22.85396083 7.35925784 28.26020056 8.84390679 34 10 C34 10.33 34 10.66 34 11 C26.43397094 11.3035999 19.58206935 10.16896873 12.1875 8.625 C10.51010742 8.29242187 10.51010742 8.29242187 8.79882812 7.953125 C-0.18633178 6.1205189 -0.18633178 6.1205189 -4 4 C-2.68 4 -1.36 4 0 4 C0 2.68 0 1.36 0 0 Z " fill="#F79800" transform="translate(486,724)"/>
<path d="M0 0 C2.584859 0.6191639 5.16776172 1.24507682 7.75 1.875 C8.47960937 2.04902344 9.20921875 2.22304688 9.9609375 2.40234375 C13.53285028 3.27908598 16.79373841 4.12686823 20 6 C12.7725395 6.24091535 6.09705662 5.34495828 -1 4 C-0.34 3.34 0.32 2.68 1 2 C0.67 1.34 0.34 0.68 0 0 Z " fill="#F17B00" transform="translate(500,729)"/>
<path d="M0 0 C1.91750286 0.08743331 3.83406665 0.1956189 5.75 0.3125 C6.81734375 0.37050781 7.8846875 0.42851563 8.984375 0.48828125 C12.1821068 1.03090154 13.62598691 1.85071145 16 4 C14.41676312 4.027193 12.83338938 4.04648306 11.25 4.0625 C9.92742187 4.07990234 9.92742187 4.07990234 8.578125 4.09765625 C6.2181162 4.00826198 4.25501476 3.66912821 2 3 C2 2.34 2 1.68 2 1 C1.34 0.67 0.68 0.34 0 0 Z " fill="#FAC900" transform="translate(488,728)"/>
<path d="M0 0 C0 3 0 3 -1.57421875 4.90234375 C-2.27160156 5.57394531 -2.96898437 6.24554687 -3.6875 6.9375 C-4.41324219 7.63746094 -5.13898437 8.33742188 -5.88671875 9.05859375 C-8.17326633 11.15917443 -10.51565467 13.136741 -13 15 C-13.66 14.67 -14.32 14.34 -15 14 C-10.05 9.38 -5.1 4.76 0 0 Z " fill="#F49700" transform="translate(687,677)"/>
<path d="M0 0 C0.99 0.99 1.98 1.98 3 3 C3.66 2.01 4.32 1.02 5 0 C5.99 1.32 6.98 2.64 8 4 C7.67 4.66 7.34 5.32 7 6 C5.35 6 3.7 6 2 6 C1.34 4.02 0.68 2.04 0 0 Z " fill="#F19800" transform="translate(718,406)"/>
<path d="M0 0 C2.29013653 3.4352048 2.17842973 4.985331 2 9 C1.01 9.33 0.02 9.66 -1 10 C-0.67 6.7 -0.34 3.4 0 0 Z " fill="#F6A901" transform="translate(376,522)"/>
<path d="M0 0 C0 3.90838866 -1.50567876 5.11594107 -4 8 C-4.66 7.67 -5.32 7.34 -6 7 C-4.02 4.69 -2.04 2.38 0 0 Z " fill="#F27F00" transform="translate(545,681)"/>
<path d="M0 0 C0.33 0.99 0.66 1.98 1 3 C-0.65 4.65 -2.3 6.3 -4 8 C-4.66 7.67 -5.32 7.34 -6 7 C-4.02 4.69 -2.04 2.38 0 0 Z " fill="#F38C00" transform="translate(324,384)"/>
<path d="M0 0 C2 1 2 1 2 1 Z " fill="#E82F06" transform="translate(520,735)"/>
</svg>
